<?xml version="1.0" standalone="no"?>
<!DOCTYPE svg PUBLIC "-//W3C//DTD SVG 20010904//EN"
 "http://www.w3.org/TR/2001/REC-SVG-20010904/DTD/svg10.dtd">
<svg version="1.0" xmlns="http://www.w3.org/2000/svg"
 width="1000.000000pt" height="166.000000pt" viewBox="0 0 1000.000000 166.000000"
 preserveAspectRatio="xMidYMid meet">

<g transform="translate(0.000000,166.000000) scale(0.100000,-0.100000)"
fill="#000000" stroke="none">
<path d="M3340 1638 c-51 -26 -97 -88 -131 -176 -45 -118 -156 -608 -214 -946
-29 -168 -33 -180 -86 -256 -46 -65 -100 -112 -162 -140 -59 -27 -84 -25 -119
11 l-31 30 6 92 c8 115 77 398 108 440 l22 30 -79 -7 c-60 -6 -82 -12 -92 -26
-12 -17 -16 -17 -50 -3 -53 22 -137 12 -204 -23 -78 -43 -155 -122 -163 -170
-4 -22 -20 -100 -36 -174 l-29 -135 23 -45 c66 -127 206 -139 333 -27 25 21
39 28 42 19 8 -24 54 -73 83 -87 84 -44 226 2 336 110 l63 61 11 -39 c13 -48
70 -113 112 -126 129 -39 283 -5 407 91 l46 35 37 -43 c56 -65 124 -94 218
-94 108 0 248 46 342 112 16 11 31 18 34 15 3 -3 0 -29 -6 -58 -6 -28 -10 -53
-9 -54 2 -2 32 -5 67 -7 l65 -3 23 120 c29 144 41 165 172 296 85 85 133 120
147 107 2 -3 -16 -76 -41 -164 -56 -196 -63 -247 -38 -294 29 -57 74 -80 154
-80 88 0 164 28 226 84 l48 44 39 -46 c41 -47 103 -81 146 -82 38 0 130 47
171 86 l36 35 13 -31 c22 -53 73 -84 146 -88 54 -4 72 0 127 25 147 69 281
251 252 342 -10 33 -19 26 -48 -41 -55 -127 -176 -243 -264 -255 -32 -4 -45 0
-68 19 -23 20 -29 35 -33 79 -7 86 66 416 109 487 l19 34 -77 -7 c-71 -7 -87
-13 -95 -38 -2 -4 -20 -1 -40 8 -50 20 -107 19 -169 -4 -63 -25 -151 -90 -177
-133 -11 -18 -31 -89 -46 -157 -25 -125 -25 -125 -77 -177 -111 -112 -238
-143 -260 -62 -9 36 10 143 60 325 22 83 41 158 41 166 0 16 -77 47 -118 47
-35 0 -108 -57 -213 -168 -65 -68 -90 -90 -86 -72 4 14 17 69 29 123 25 111
25 112 -50 123 -26 4 -48 2 -54 -4 -6 -6 -28 -97 -49 -204 l-39 -193 -42 -38
c-24 -21 -80 -57 -126 -79 -75 -38 -92 -42 -170 -46 -72 -3 -93 0 -121 16 -46
25 -72 76 -65 124 6 34 9 37 48 43 117 18 260 90 306 155 12 17 25 51 27 74 5
38 1 47 -28 81 -74 84 -180 98 -297 40 -38 -20 -86 -53 -105 -74 -30 -33 -37
-51 -51 -132 -25 -139 -31 -152 -101 -217 -140 -132 -314 -162 -355 -62 -9 21
-11 65 -8 139 l4 109 74 113 c140 215 271 492 321 679 32 120 33 286 2 352
-37 80 -99 104 -173 66z m80 -119 c16 -29 13 -171 -4 -254 -21 -98 -60 -218
-110 -338 -51 -122 -148 -319 -154 -313 -10 11 105 509 173 751 47 167 69 203
95 154z m474 -900 c21 -16 26 -29 26 -62 0 -55 -28 -99 -82 -131 -39 -22 -128
-50 -136 -42 -6 7 21 142 34 167 19 38 81 89 108 89 13 0 35 -9 50 -21z
m-1373 -16 c14 -14 -59 -333 -86 -380 -63 -106 -153 -123 -188 -36 -14 36 -13
47 14 178 38 179 61 221 139 249 20 7 111 -1 121 -11z m2891 -1 c15 -15 -59
-341 -87 -383 -32 -49 -85 -89 -118 -89 -32 0 -77 52 -77 89 0 30 43 251 56
286 13 37 56 87 88 101 32 15 122 12 138 -4z"/>
<path d="M8185 1642 c-67 -31 -119 -116 -164 -267 -45 -152 -150 -649 -192
-904 -23 -140 -29 -152 -119 -234 -74 -66 -155 -107 -215 -109 -95 -2 -98 25
-40 312 26 126 45 236 41 245 -8 22 -91 20 -114 -3 -27 -27 -117 -467 -107
-529 8 -57 45 -97 104 -113 97 -26 266 41 385 153 l35 34 15 -51 c50 -171 299
-191 508 -40 28 19 51 34 52 32 61 -101 104 -132 181 -132 56 0 114 26 171 77
25 21 39 28 42 19 8 -24 54 -73 83 -87 67 -35 181 -11 280 60 l46 33 -4 -42
c-5 -43 -5 -43 30 -49 20 -3 49 -2 64 2 28 7 29 11 64 187 20 98 43 193 52
210 36 69 98 124 158 138 23 5 27 2 32 -23 8 -38 54 -91 94 -107 43 -19 129
-18 186 2 55 18 117 82 117 119 0 32 -6 31 -36 -4 -48 -57 -144 -79 -193 -45
-27 20 -51 72 -51 113 0 36 -22 51 -75 51 -53 0 -104 -25 -157 -78 -52 -50
-55 -48 -34 21 8 26 11 49 7 51 -16 11 -82 17 -110 11 -37 -8 -40 -15 -85
-253 -26 -132 -42 -190 -57 -212 -46 -61 -154 -129 -207 -130 -13 0 -37 14
-54 31 l-31 30 6 92 c8 115 77 398 108 440 l22 30 -79 -7 c-60 -6 -82 -12 -92
-26 -12 -17 -16 -17 -50 -3 -80 33 -198 -2 -297 -89 -53 -47 -70 -82 -86 -183
l-12 -80 -76 -76 c-86 -86 -160 -127 -243 -136 -113 -12 -144 34 -136 201 l6
101 64 100 c181 279 313 575 349 779 15 91 8 220 -17 270 -36 74 -100 100
-169 68z m77 -124 c32 -60 4 -264 -62 -453 -60 -169 -195 -463 -207 -451 -10
10 130 610 183 786 42 137 61 163 86 118z m549 -915 c10 -10 -56 -324 -75
-362 -61 -116 -158 -145 -196 -58 -18 42 -18 42 11 182 38 179 61 221 139 249
20 7 111 -1 121 -11z"/>
<path d="M7228 1335 c-44 -14 -47 -17 -38 -40 24 -63 -61 -249 -342 -746 -95
-168 -180 -317 -189 -330 -15 -21 -16 0 -22 297 -10 427 -29 526 -118 596
-120 96 -405 29 -434 -102 -3 -14 -1 -31 4 -39 8 -12 16 -9 44 16 52 46 115
66 187 61 135 -10 165 -76 190 -418 10 -135 15 -519 7 -590 -1 -18 2 -24 13
-21 8 2 41 6 72 10 32 4 60 10 64 13 3 4 25 49 48 101 73 161 118 236 421 702
100 154 195 304 210 332 33 64 42 121 23 146 -19 25 -82 30 -140 12z"/>
<path d="M1683 1219 c-11 -4 -35 -25 -54 -47 -66 -78 -305 -474 -483 -802 -25
-47 -46 -80 -46 -74 0 6 -21 123 -46 260 -38 206 -46 266 -44 349 6 238 6 232
-14 254 -24 27 -125 30 -150 5 -21 -20 -20 -36 9 -174 l23 -115 -65 -165 c-78
-200 -156 -350 -230 -447 -99 -130 -181 -178 -294 -171 -78 4 -110 26 -130 86
-22 67 9 193 67 269 l24 31 -31 11 c-87 30 -178 -82 -187 -230 -3 -61 0 -85
16 -121 36 -82 124 -128 246 -128 213 1 382 175 566 582 24 53 45 96 46 95 2
-1 15 -86 29 -187 32 -223 43 -407 26 -437 -19 -36 4 -36 89 -2 78 32 80 34
80 68 0 35 59 155 183 371 78 137 209 351 213 348 1 -2 -13 -54 -31 -115 -44
-145 -55 -213 -55 -353 0 -200 39 -298 137 -347 50 -24 69 -28 138 -27 174 3
302 93 313 218 4 50 -9 96 -26 96 -4 0 -20 -27 -36 -61 -66 -145 -199 -198
-298 -119 -89 70 -103 324 -37 660 35 175 85 292 145 339 l27 21 -27 29 c-30
32 -62 42 -93 30z"/>
<path d="M7416 1029 c-33 -39 -36 -109 -6 -139 51 -51 146 -4 157 77 9 65 -14
93 -76 93 -43 0 -53 -4 -75 -31z"/>
</g>
</svg>
